<svg viewBox="0 0 20 35" fill="none" xmlns="http://www.w3.org/2000/svg">
<path d="M17.4357 0H2.5737C1.15115 0 0 1.14997 0 2.55034V32.4404C0 33.85 1.15115 34.9907 2.5737 34.9907H17.4263C18.8489 34.9907 19.9906 33.85 19.9906 32.4404V2.55034C20 1.14997 18.8582 0 17.4357 0ZM6.32663 1.55803H13.6734C13.8606 1.55803 14.0103 1.83625 14.0103 2.17011C14.0103 2.50397 13.8606 2.78219 13.6734 2.78219H6.32663C6.13945 2.78219 5.99906 2.50397 5.99906 2.17011C5.99906 1.82697 6.13945 1.55803 6.32663 1.55803ZM10.014 32.4867C9.10622 32.4867 8.36687 31.7634 8.36687 30.8638C8.36687 29.9642 9.10622 29.2316 10.014 29.2316C10.9031 29.2316 11.6425 29.9642 11.6425 30.8638C11.6425 31.7634 10.8938 32.4867 10.014 32.4867ZM18.0721 26.9038H1.92794V4.3124H18.0814V26.9038H18.0721Z" fill="#D37321"/>
</svg>
