<svg viewBox="0 0 24 35" fill="none" xmlns="http://www.w3.org/2000/svg">
<path d="M23.4367 8.7013C23.3074 8.23748 23.0581 7.74583 22.8734 7.30983C20.6387 1.9295 15.7722 0 11.8384 0C6.57484 0 0.775683 3.5436 0 10.8534V12.3377C0 12.4119 0.0184686 12.9685 0.0461716 13.2468C0.480185 16.7347 3.22278 20.4267 5.26356 23.9147C7.4521 27.6438 9.73297 31.3173 12.0046 35C13.399 32.6067 14.7841 30.1763 16.1416 27.8386C16.5202 27.1521 16.9542 26.475 17.3236 25.8163C17.5637 25.3803 18.0439 24.9443 18.2563 24.5362C20.454 20.4917 23.9908 16.4193 23.9908 12.4026V10.7607C24 10.3247 23.4644 8.80334 23.4367 8.7013ZM11.9307 16.2059C10.3794 16.2059 8.6895 15.4267 7.85841 13.2746C7.72913 12.9314 7.73836 12.2449 7.73836 12.1892V11.2245C7.73836 8.48794 10.0562 7.23562 12.06 7.23562C14.5348 7.23562 16.4556 9.23006 16.4556 11.7161C16.4648 14.2208 14.4148 16.2059 11.9307 16.2059Z" fill="#D37321"/>
</svg>
